<svg width="20" height="20" viewBox="0 0 20 20" fill="none" xmlns="http://www.w3.org/2000/svg">
<path fill-rule="evenodd" clip-rule="evenodd" d="M6.35288 1.54876C7.17705 0.600931 8.39332 0 9.75 0C11.1066 0 12.3228 0.600872 13.147 1.54861C14.4001 1.46106 15.6852 1.89616 16.6446 2.85557C17.604 3.81498 18.0391 5.10009 17.9516 6.35319C18.8992 7.17735 19.5 8.39348 19.5 9.75C19.5 11.1068 18.899 12.3231 17.9511 13.1473C18.0384 14.4002 17.6033 15.685 16.6441 16.6443C15.6848 17.6035 14.4 18.0386 13.1471 17.9513C12.3229 18.8991 11.1067 19.5 9.75 19.5C8.3934 19.5 7.1772 18.8991 6.35304 17.9514C5.09992 18.039 3.8148 17.6039 2.85537 16.6445C1.89596 15.685 1.46086 14.3999 1.54841 13.1468C0.600785 12.3226 0 11.1065 0 9.75C0 8.39342 0.600846 7.17723 1.54855 6.35306C1.4611 5.10005 1.89621 3.81507 2.85554 2.85574C3.81488 1.8964 5.09987 1.46129 6.35288 1.54876ZM13.3603 7.93593C13.6011 7.59887 13.523 7.13046 13.1859 6.8897C12.8489 6.64894 12.3805 6.72701 12.1397 7.06407L8.9043 11.5936L7.28033 9.96967C6.98744 9.67678 6.51256 9.67678 6.21967 9.96967C5.92678 10.2626 5.92678 10.7374 6.21967 11.0303L8.46967 13.2803C8.62556 13.4362 8.84215 13.5156 9.06186 13.4974C9.28157 13.4793 9.48216 13.3653 9.6103 13.1859L13.3603 7.93593Z" fill="#CAFF33"/>
</svg>
